HIERARCHY
ROOT Hips
{
	OFFSET	0.00	0.00	0.00
	CHANNELS 6 Xposition Yposition Zposition Zrotation Xrotation Yrotation
	JOINT LeftUpperLeg
	{
		OFFSET	 0.100000	-0.066564	-0.000554
		CHANNELS 3 Zrotation Xrotation Yrotation
		JOINT LeftLowerLeg
		{
			OFFSET	 0.002447	-0.463436	-0.005172
			CHANNELS 3 Zrotation Xrotation Yrotation
			JOINT LeftFoot
			{
				OFFSET	-0.002447	-0.420480	-0.020576
				CHANNELS 3 Zrotation Xrotation Yrotation
				JOINT LeftToes
				{
					OFFSET	 0.003734	-0.104922	 0.126407
					CHANNELS 3 Zrotation Xrotation Yrotation
					End Site
					{
						OFFSET	 0.000000	 0.000000	 0.059955
					}
				}
			}
		}
	}
	JOINT RightUpperLeg
	{
		OFFSET	-0.100000	-0.066564	-0.000554
		CHANNELS 3 Zrotation Xrotation Yrotation
		JOINT RightLowerLeg
		{
			OFFSET	-0.002447	-0.463436	-0.005146
			CHANNELS 3 Zrotation Xrotation Yrotation
			JOINT RightFoot
			{
				OFFSET	 0.002447	-0.420479	-0.020602
				CHANNELS 3 Zrotation Xrotation Yrotation
				JOINT RightToes
				{
					OFFSET	-0.003734	-0.104922	 0.126407
					CHANNELS 3 Zrotation Xrotation Yrotation
					End Site
					{
						OFFSET	-0.000000	 0.000000	 0.059955
					}
				}
			}
		}
	}
	JOINT Spine
	{
		OFFSET	 0.000000	 0.099235	-0.012273
		CHANNELS 3 Zrotation Xrotation Yrotation
		JOINT Chest
		{
			OFFSET	-0.000001	 0.116455	-0.014223
			CHANNELS 3 Zrotation Xrotation Yrotation
			JOINT UpperChest
			{
				OFFSET	 0.000001	 0.133602	-0.016265
				CHANNELS 3 Zrotation Xrotation Yrotation
				JOINT LeftShoulder
				{
					OFFSET	 0.061058	 0.091105	 0.007056
					CHANNELS 3 Zrotation Xrotation Yrotation
					JOINT LeftUpperArm
					{
						OFFSET	 0.133942	-0.002659	-0.026009
						CHANNELS 3 Zrotation Xrotation Yrotation
						JOINT LeftLowerArm
						{
							OFFSET	 0.274047	 0.000000	 0.000000
							CHANNELS 3 Zrotation Xrotation Yrotation
							JOINT LeftHand
							{
								OFFSET	 0.276145	 0.000000	 0.000000
								CHANNELS 3 Zrotation Xrotation Yrotation
								End Site
								{
									OFFSET	 0.165687	 0.000000	 0.000000
								}
							}
						}
					}
				}
				JOINT Neck
				{
					OFFSET	 0.000000	 0.150325	 0.007929
					CHANNELS 3 Zrotation Xrotation Yrotation
					JOINT Head
					{
						OFFSET	 0.000000	 0.103218	 0.031424
						CHANNELS 3 Zrotation Xrotation Yrotation
						End Site
						{
							OFFSET	 0.000000	 0.061931	 0.018855
						}
					}
				}
				JOINT RightShoulder
				{
					OFFSET	-0.061057	 0.091105	 0.007056
					CHANNELS 3 Zrotation Xrotation Yrotation
					JOINT RightUpperArm
					{
						OFFSET	-0.133943	-0.002660	-0.026009
						CHANNELS 3 Zrotation Xrotation Yrotation
						JOINT RightLowerArm
						{
							OFFSET	-0.274047	 0.000000	 0.000000
							CHANNELS 3 Zrotation Xrotation Yrotation
							JOINT RightHand
							{
								OFFSET	-0.276145	 0.000000	 0.000000
								CHANNELS 3 Zrotation Xrotation Yrotation
								End Site
								{
									OFFSET	-0.165687	 0.000000	 0.000000
								}
							}
						}
					}
				}
			}
		}
	}
}
MOTION
Frames:    8
Frame Time: 0.03333334
-0.286890	 1.016930	-0.806060	-4.214215	-4.569715	 24.702430	 3.470860	 12.175180	 14.006460	-0.332150	 17.270830	 0.038769	 4.421501	-24.604240	 20.807790	 0.000526	 0.388673	 0.735272	-11.747790	 10.144970	-27.902140	-0.000772	 0.075649	-0.000614	 0.819861	 0.786229	-5.608558	 0.000259	-0.109667	 0.000551	 0.199778	 0.466334	-1.965500	-0.000000	 0.000000	 0.000000	 0.418055	 0.926986	-3.939455	 8.297503	-3.112558	 2.874450	-70.859360	-1.427148	-41.639630	-22.823390	 7.465044	-49.809890	 23.390970	-5.158342	-6.516726	 7.400124	 4.016565	 1.321285	 7.613719	 4.095751	 0.950465	-4.232973	 1.473749	-9.049417	 84.195600	 7.385519	 42.008600	 14.361360	 21.973340	 60.352090	-32.579900	-1.076747	 8.244188
-0.290630	 1.018550	-0.802390	-4.075479	-4.506035	 25.069350	 3.531717	 13.072440	 13.821850	-0.250777	 15.489210	 0.022185	 3.884121	-23.761620	 20.379990	-0.000298	 0.387883	 0.729886	-11.450260	 10.394310	-26.685000	-0.000146	 0.063115	 0.000434	 0.426771	-0.683890	-5.692583	 0.000307	-0.110338	 0.000304	 0.158897	 0.436755	-1.908326	-0.000000	 0.000000	 0.000000	 0.333127	 0.870026	-3.823545	 8.429546	-3.035281	 2.520356	-71.254990	-1.759797	-41.627120	-22.750630	 7.503106	-49.637110	 22.938290	-4.920783	-6.798316	 7.697708	 3.999734	 0.826432	 7.787503	 4.046446	 0.705118	-4.451550	 1.219028	-8.903888	 84.429230	 7.127680	 41.856970	 14.392190	 21.812020	 59.818260	-32.911340	-1.313687	 8.134520
-0.296360	 1.021150	-0.796990	-3.783783	-4.480088	 25.699360	 3.541952	 14.655990	 13.350010	-0.135168	 12.449090	 0.005053	 3.262244	-22.210100	 19.971260	-0.000094	 0.388805	 0.741284	-11.086390	 10.851420	-25.628340	-0.001270	 0.089334	 0.000366	 0.202054	-2.389706	-5.677734	 0.000607	-0.092876	-0.000046	 0.175424	 0.466698	-1.879240	-0.000000	 0.000000	 0.000000	 0.367227	 0.929440	-3.766378	 8.493733	-3.047719	 2.044134	-71.943130	-2.515385	-41.348490	-22.718060	 8.276699	-49.466930	 22.845660	-5.024745	-6.861361	 7.867885	 3.944808	 0.472757	 7.839777	 3.876249	 0.425730	-4.443622	 1.292168	-9.036519	 84.336020	 7.085826	 42.035690	 13.795590	 21.986560	 59.739300	-33.380340	-1.504826	 8.459099
-0.301350	 1.022780	-0.792750	-3.459431	-4.361367	 26.131430	 3.381892	 16.098560	 12.738600	-0.095557	 9.556352	-0.000215	 2.923202	-20.716630	 19.992840	-0.000039	 0.389965	 0.755444	-10.898640	 11.142450	-24.912710	-0.000296	 0.074684	-0.000575	-0.266892	-3.530880	-5.842699	-0.000406	-0.092098	 0.000035	 0.161452	 0.478054	-1.865740	-0.000000	 0.000000	 0.000000	 0.340644	 0.951260	-3.740128	 8.367769	-3.208192	 1.838084	-72.449780	-3.111951	-41.157710	-22.761680	 8.868896	-49.277100	 22.434080	-5.108888	-6.980557	 7.755941	 3.757907	 0.286610	 7.785954	 3.733771	 0.263769	-4.627623	 1.192646	-9.129654	 84.291720	 7.178795	 42.126580	 13.564350	 21.711860	 59.869150	-33.342710	-1.486380	 8.396102
-0.306670	 1.023940	-0.788470	-2.994655	-4.093923	 26.570240	 2.920041	 18.195980	 12.307600	-0.044955	 5.189649	-0.002184	 2.469780	-18.502160	 19.816010	 0.000369	 0.389511	 0.763672	-11.240450	 9.545659	-24.061120	-0.024461	 2.763786	 0.001916	-1.042859	-5.659355	-6.281300	-0.000156	-0.078731	-0.001045	 0.078802	 0.452852	-1.839740	-0.000000	 0.000000	 0.000000	 0.171632	 0.904491	-3.685879	 8.217687	-3.401258	 1.711338	-72.928950	-3.634362	-40.952250	-22.631760	 8.838991	-49.325980	 21.663580	-5.143992	-6.903350	 7.385305	 3.756356	 0.196273	 7.554829	 3.807124	 0.136768	-4.836275	 1.083008	-9.201975	 84.319890	 7.053741	 42.143610	 13.614250	 21.665490	 60.071270	-33.091740	-1.194487	 7.857070
-0.322940	 1.025640	-0.775450	-2.052623	-3.528480	 27.381860	 2.910776	 20.712120	 12.102340	-0.000291	 0.078421	-0.000399	 0.891570	-15.810310	 18.914590	 0.000022	 0.390598	 0.772220	-12.243600	-2.465291	-21.783080	-0.050733	 18.859000	 0.018925	-5.073647	-10.253840	-7.426193	 0.000437	-0.073949	 0.000860	-0.389743	 0.209013	-1.397747	-0.000000	 0.000000	 0.000000	-0.775588	 0.428963	-2.799108	 8.754757	-3.284233	 0.602249	-73.267280	-4.327906	-40.664070	-22.953770	 9.934529	-48.941360	 21.449790	-6.068251	-6.831611	 7.328229	 4.068562	-0.576084	 7.498303	 4.108472	-0.642471	-4.196876	 1.671831	-10.339060	 83.459400	 7.640333	 43.032020	 13.723590	 21.521320	 59.934820	-34.182370	-1.270039	 6.704702
-0.332200	 1.026290	-0.768550	-1.442353	-3.432414	 27.903020	 3.284479	 20.910810	 11.474890	-0.000202	 0.083587	-0.000006	 0.092846	-15.613930	 18.922110	-0.000210	 0.389804	 0.771252	-12.660870	-4.694350	-20.045090	 0.316111	 22.357450	-0.054683	-4.705686	-8.787464	-7.929508	-0.000036	 0.574801	 0.000117	-0.485021	 0.274253	-1.435603	-0.000000	 0.000000	 0.000000	-0.965662	 0.561099	-2.873793	 8.677471	-3.339926	 0.385653	-73.194400	-4.514307	-40.441280	-23.123320	 10.042630	-48.789180	 21.500660	-6.099254	-7.056961	 7.212381	 4.039372	-0.808136	 7.402725	 3.926022	-0.716442	-4.357641	 1.781018	-10.452910	 83.403420	 7.644707	 43.050750	 13.669410	 21.943640	 60.076450	-34.640470	-1.249981	 6.019848
-0.346940	 1.027720	-0.758080	-1.297330	-3.866396	 28.731190	 4.864748	 21.293040	 10.806020	 0.000137	 0.083440	-0.000270	-0.998864	-14.800640	 18.725950	 0.000477	 0.397484	 0.828615	-12.217390	-5.110116	-21.595150	 0.096656	 24.028670	-0.014553	-2.302803	-8.919764	-8.492995	 0.000097	 0.089864	-0.000739	-0.295368	 0.484433	-1.526580	-0.000000	 0.000000	 0.000000	-0.578576	 0.979867	-3.056478	 9.064732	-3.361599	 0.126590	-73.534670	-4.741892	-40.166460	-22.969200	 10.313650	-48.584760	 21.762740	-6.044927	-7.370203	 7.650229	 4.146357	-1.071347	 7.268809	 3.735741	-0.839342	-3.866975	 1.922876	-10.593150	 83.419110	 7.623042	 43.076650	 14.024100	 21.833420	 59.719510	-34.240450	-1.228142	 5.685390
